PathFileType	4	(X/Y/Z)	E:\Qualisys_Data\Carbon_Farble_Plate\Data\Amateur_Runner\S2\T3\S2T3V22_c3d.trc
DataRate	CameraRate	NumFrames	NumMarkers	Units	OrigDataRate	OrigDataStartFrame	OrigNumFrames
200.000000	200.000000	4	39	mm	200.000000	118	316
Frame#	Time	LSHO			RSHO			LICST			RICST			LASIS			LHEEL			RASIS			LTROC			RTROC			SACR			LTH1			LSK4			LTH2			LTH3			RHM5			LSK2			LTH4			RTH1			LTOE			RTH2			RTH3			RTH4			LLEP			RLEP			LSK1			LSK3			RSK1			LHM5			RSK2			LFT1			RSK3			RSK4			LLME			RLME			RTOE			RHEEL			RFT1			RFT2			LFT2			
		X1	Y1	Z1	X2	Y2	Z2	X3	Y3	Z3	X4	Y4	Z4	X5	Y5	Z5	X6	Y6	Z6	X7	Y7	Z7	X8	Y8	Z8	X9	Y9	Z9	X10	Y10	Z10	X11	Y11	Z11	X12	Y12	Z12	X13	Y13	Z13	X14	Y14	Z14	X15	Y15	Z15	X16	Y16	Z16	X17	Y17	Z17	X18	Y18	Z18	X19	Y19	Z19	X20	Y20	Z20	X21	Y21	Z21	X22	Y22	Z22	X23	Y23	Z23	X24	Y24	Z24	X25	Y25	Z25	X26	Y26	Z26	X27	Y27	Z27	X28	Y28	Z28	X29	Y29	Z29	X30	Y30	Z30	X31	Y31	Z31	X32	Y32	Z32	X33	Y33	Z33	X34	Y34	Z34	X35	Y35	Z35	X36	Y36	Z36	X37	Y37	Z37	X38	Y38	Z38	X39	Y39	Z39	

119	0.59	-1025.296630859375	1407.687866210938	-490.8666381835938	-1026.182861328125	1412.7353515625	-171.7064819335938	-1105.558349609375	956.5272827148438	-454.7718811035156	-1077.286376953125	952.54296875	-148.8756103515625	-1045.333862304688	908.6459350585938	-441.1666259765625	-1418.308959960938	127.652961730957	-287.3345642089844	-1017.008117675781	908.0972290039062	-177.5695037841797	-1177.427612304688	837.51220703125	-438.6336669921875	-1152.9306640625	848.6951904296875	-139.4067077636719	-1178.9052734375	998.5352783203124	-296.7432861328125	-1062.8564453125	588.074462890625	-442.759765625	-1274.165771484375	279.284423828125	-386.6376342773438	-1142.818481445312	588.1636962890625	-438.1573181152344	-1061.8671875	488.0390625	-409.9006652832031	-1261.51171875	261.4719848632812	-140.0916290283203	-1215.78125	357.2265319824219	-410.5324096679688	-1145.721069335938	492.3580932617188	-406.2285461425781	-905.9537353515624	653.7464599609375	-127.0284957885742	-1185.0986328125	65.78553009033203	-311.0778503417969	-978.0985717773438	620.5484008789062	-120.8586502075195	-865.3623657226562	561.012939453125	-140.2904968261719	-942.0646362304688	530.4924926757812	-139.2622985839844	-1109.600952148438	445.6128845214844	-406.947998046875	-906.2446899414062	517.347900390625	-133.9857177734375	-1152.049682617188	313.0589599609375	-394.5746459960938	-1210.843139648438	234.1970062255859	-374.2321472167969	-978.863525390625	440.8451843261719	-140.7484893798828	-1250.354125976562	64.06509399414062	-369.3871459960938	-1003.938232421875	518.0111694335938	-133.7183990478516	-1413.302612304688	98.12483215332033	-258.0332336425781	-1075.298706054688	409.6246032714844	-150.4692840576172	-1097.126586914062	486.1507263183594	-149.9233093261719	-1348.907348632812	127.6678771972656	-344.4722290039062	-1259.151000976562	391.3418273925781	-178.0473480224609	-1222.617553710938	200.3437194824219	-189.2859649658203	-1296.8212890625	436.8885192871094	-242.4175109863281	-1313.736083984375	413.3623962402344	-269.7243957519531	-1320.646484375	431.1292724609375	-221.6151733398438	-1423.2509765625	98.68106079101562	-311.7115478515625
120	0.595	-1003.308837890625	1412.598876953125	-490.0653381347656	-1008.403442382812	1417.051635742188	-171.4108581542969	-1083.200439453125	959.4669189453124	-455.5010070800781	-1057.135009765625	957.6776123046876	-149.8915252685547	-1024.355224609375	911.6880493164062	-441.9237365722656	-1415.323974609375	133.3888244628906	-288.5446472167969	-996.9757080078124	913.082275390625	-178.9628295898438	-1158.12744140625	841.3668212890625	-438.396484375	-1131.694580078125	854.0140991210938	-139.2240905761719	-1157.587158203125	1002.903625488281	-298.9112243652344	-1050.720825195312	591.6914672851562	-442.6319274902344	-1270.256958007812	284.7906799316406	-387.4998474121094	-1130.951782226562	593.4009399414062	-437.6147155761719	-1051.933349609375	491.3562622070312	-410.8233032226562	-1222.683227539062	253.8242797851562	-140.1834564208984	-1210.956420898438	362.7762451171875	-411.5144958496094	-1135.971313476562	497.3304443359375	-406.6352844238281	-882.5975341796875	662.3379516601562	-129.2410583496094	-1183.98095703125	65.58490753173828	-310.9956359863281	-953.520263671875	627.6553344726562	-123.0037384033203	-839.779296875	571.027099609375	-143.4756774902344	-916.0142822265624	538.4359741210938	-142.5927734375	-1102.2080078125	450.0599365234375	-407.3417358398438	-879.0223999023438	526.1209106445312	-136.3849792480469	-1146.846069335938	317.2985534667969	-395.6510009765625	-1206.846313476562	239.0282897949219	-376.2985229492188	-949.3352661132812	445.6944885253906	-142.6668853759766	-1249.589965820312	64.63379669189453	-369.2236938476562	-977.6122436523438	521.4041137695312	-137.2232208251953	-1410.804321289062	104.5115509033203	-258.9457397460938	-1044.473388671875	409.92626953125	-151.9215240478516	-1069.214721679688	486.0270385742188	-151.1806640625	-1345.097900390625	132.508544921875	-345.6963500976562	-1227.589233398438	384.1722717285156	-177.8907928466797	-1180.193359375	195.3359375	-189.7093963623047	-1268.14599609375	427.5980529785156	-242.0733337402344	-1284.055297851562	402.6716613769531	-269.3720092773438	-1291.393188476562	420.3172607421875	-220.6996765136719	-1420.7197265625	104.6831512451172	-313.1401672363281
121	0.6	-981.4445190429688	1417.890747070312	-489.2516479492188	-990.5637817382812	1421.486572265625	-171.3179779052734	-1060.605590820312	963.1847534179688	-456.495849609375	-1036.791748046875	962.8995971679688	-151.2103576660156	-1002.796142578125	914.5903930664062	-442.6567077636719	-1411.86376953125	140.3844757080078	-289.81201171875	-976.591796875	918.3304443359376	-180.1799774169922	-1138.376342773438	845.6219482421875	-438.3977355957031	-1110.02197265625	860.00537109375	-138.4664154052734	-1136.472778320312	1007.0322265625	-300.7662048339844	-1037.438354492188	595.4555053710938	-442.0561218261719	-1265.386596679688	290.9265747070312	-388.99365234375	-1118.42138671875	599.2677001953125	-437.27490234375	-1041.915649414062	495.2260437011719	-411.2439880371094	-1183.207153320312	246.7493896484375	-140.0395660400391	-1204.619384765625	368.5049743652344	-412.1910705566406	-1135.097045898438	507.9940490722656	-413.5411071777344	-859.1389770507812	671.3594970703125	-131.4535980224609	-1183.69091796875	65.21226501464844	-311.3388061523438	-929.1064453125	634.9187622070312	-124.5539855957031	-814.2937622070312	580.4913940429688	-146.055908203125	-888.7376098632812	546.690185546875	-141.9124145507812	-1094.019409179688	454.5444946289062	-408.0291137695312	-852.6683959960938	534.693603515625	-138.8433990478516	-1141.468627929688	321.8960876464844	-397.1157836914062	-1201.514038085938	244.1867218017578	-377.6476135253906	-919.61474609375	449.7927856445312	-144.7846374511719	-1248.728881835938	65.5708999633789	-369.6961975097656	-951.0562133789062	524.7918701171875	-139.7600402832031	-1407.690551757812	111.1350555419922	-259.98828125	-1013.236938476562	411.0036315917969	-153.3242797851562	-1041.505737304688	485.3808288574219	-152.3628997802734	-1340.752075195312	138.0298919677734	-347.6111450195312	-1196.435913085938	375.904052734375	-178.6613922119141	-1137.841674804688	190.7528839111328	-190.4957122802734	-1237.319946289062	416.9789428710938	-240.6134338378906	-1253.892211914062	392.2268676757812	-269.5387268066406	-1262.802368164062	408.8647155761719	-220.2439880371094	-1417.415771484375	111.2881317138672	-314.3169555664062
122	0.605	-959.7730712890624	1423.416137695312	-488.4566345214844	-972.8126220703124	1425.712158203125	-171.2447204589844	-1037.680786132812	966.9669189453124	-457.3058776855469	-1015.60400390625	968.1173706054688	-152.1427154541016	-981.4086303710938	917.7504272460938	-442.9842224121094	-1406.973022460938	147.4521789550781	-291.3275146484375	-955.9408569335938	923.7937622070312	-181.0896301269531	-1118.583862304688	850.1793212890625	-438.2345581054688	-1088.293701171875	865.8939208984375	-137.6943054199219	-1115.7421875	1011.290466308594	-302.9705810546875	-1023.507507324219	599.1868286132812	-441.1600952148438	-1257.803344726562	297.5937805175781	-390.25439453125	-1104.904541015625	605.7808837890625	-438.4142150878906	-1031.084350585938	499.1496276855469	-411.2089538574219	-1143.8603515625	240.3260803222656	-139.9629974365234	-1198.875610351562	375.4185485839844	-413.7911987304688	-1115.989135742188	508.9605102539062	-409.4811401367188	-835.4352416992188	680.0530395507812	-133.3374786376953	-1182.488647460938	65.20528411865234	-311.9094848632812	-904.7922973632812	642.712158203125	-126.097785949707	-789.1170043945312	590.0542602539062	-148.8370971679688	-862.6585083007812	554.8351440429688	-143.8051300048828	-1085.046020507812	459.694580078125	-408.7822265625	-826.5682983398438	543.0501708984375	-141.5592498779297	-1135.6787109375	328.3422546386719	-398.9377136230469	-1196.73486328125	251.1300201416016	-380.8462524414062	-890.1900634765625	455.2496643066406	-144.2397155761719	-1246.850341796875	66.4861831665039	-370.0719909667969	-924.8607177734376	527.6897583007812	-141.8652648925781	-1403.822387695312	118.2986373901367	-261.2554931640625	-982.6931762695312	411.2904357910156	-154.6436614990234	-1014.1083984375	484.5572204589844	-153.0948638916016	-1336.314208984375	144.6059722900391	-349.4948120117188	-1162.22900390625	368.3138732910156	-179.5235748291016	-1095.838012695312	186.5411987304688	-190.5787811279297	-1210.591552734375	406.65087890625	-240.1670837402344	-1223.973510742188	380.26025390625	-268.6382751464844	-1233.000122070312	397.3349914550781	-219.6744689941406	-1414.9658203125	115.9929504394531	-313.1607055664062
